# xmcd
#
# Track frame offsets: 
#        150
#        41455
#        56225
#        73100
#        100977
#        140307
#        190325
#        211235
#        223912
#        238267
#        282547
#
# Disc length: 4275 seconds
#
# Revision: 5
# Processed by: cddbd v1.5.2PL0 Copyright (c) Steve Scherf et al.
# Submitted via: ExactAudioCopy v0.99pb5
#
DISCID=b610b10b
DTITLE=Messiaen, Olivier - Piano Works - Vol.1 (Peter Hill - Brilliant
DTITLE=Classics)
DYEAR=1991
DGENRE=Piano
TTITLE0=Vingt Regards sur l'enfant-Jésus (1944) - I. Regard du Père
TTITLE1=II. Regard de l' Étoile
TTITLE2=III. L' Échange
TTITLE3=IV. Regard de la Vierge
TTITLE4=V. Regard du Fils sur le Fils
TTITLE5=VI. Par Lui, tout a été fait
TTITLE6=VII. Regard de la Croix
TTITLE7=VIII. Regard des hauteurs
TTITLE8=IX. Regard du Temps
TTITLE9=X. Regard de l' Esprit de joie
TTITLE10=XI. Première communion de la Vierge
EXTD=YEAR: 1991
EXTT0=
EXTT1=
EXTT2=
EXTT3=
EXTT4=
EXTT5=
EXTT6=
EXTT7=
EXTT8=
EXTT9=
EXTT10=
PLAYORDER=
